Paul (2011) DVDRip Dual Audio[Hindi-Eng] -=MTR=-
 
http://thepiratebay.org/user/HDvideos/0/7

Format                          : Matroska
File size                        : 506 MiB
Duration                        : 1h 39mn
Overall bit rate                : 712 Kbps
Encoded date                    : UTC 2011-09-05 13:26:46
Writing application              : mkvmerge v4.7.0 ('Just Like You Imagined') built on Apr 21 2011 01:13:14
Writing library                  : libebml v1.2.0 + libmatroska v1.1.0

Video
ID                              : 1
Format                          : AVC
Format/Info                      : Advanced Video Codec
Format profile                  : [email="High@L4.0"]High@L4.0[/email]
Format settings, CABAC          : Yes
Format settings, ReFrames        : 3 frames
Muxing mode                      : Container [email="profile=Unknown@4.0"]profile=Unknown@4.0[/email]
Codec ID                        : V_MPEG4/ISO/AVC
Duration                        : 1h 39mn
Bit rate                        : 546 Kbps
Width                            : 796 pixels
Height                          : 330 pixels
Display aspect ratio            : 2.40:1
Frame rate                      : 25.000 fps
Resolution                      : 24 bits
Colorimetry                      : 4:2:0
Scan type                        : Progressive
Bits/(Pixel*Frame)              : 0.083
Stream size                      : 388 MiB (77%)
Writing library                  : x264 core 104 r1683 62997d6
Encoding settings                : cabac=1 / ref=3 / deblock=1:0:0 / analyse=0x3:0x133 / me=umh / subme=7 / psy=1 / psy_rd=1.00:0.00 / mixed_ref=1 / me_range=16 / chroma_me=1 / trellis=1 / 8x8dct=1 / cqm=0 / deadzone=21,11 / fast_pskip=1 / chroma_qp_offset=-2 / threads=6 / sliced_threads=0 / nr=0 / decimate=1 / interlaced=0 / constrained_intra=0 / bframes=3 / b_pyramid=0 / b_adapt=1 / b_bias=0 / direct=1 / weightb=1 / open_gop=0 / weightp=2 / keyint=250 / keyint_min=25 / scenecut=40 / intra_refresh=0 / rc_lookahead=40 / rc=crf / mbtree=1 / crf=22.0 / qcomp=0.60 / qpmin=10 / qpmax=51 / qpstep=4 / vbv_maxrate=700 / vbv_bufsize=600 / crf_max=0.0 / ip_ratio=1.40 / aq=1:1.00 / nal_hrd=none
Language                        : Hindi

Audio #1
ID                              : 2
Format                          : MPEG Audio
Format version                  : Version 1
Format profile                  : Layer 3
Codec ID                        : A_MPEG/L3
Codec ID/Hint                    : MP3
Duration                        : 1h 39mn
Bit rate mode                    : Constant
Bit rate                        : 96.0 Kbps
Channel(s)                      : 2 channels
Sampling rate                    : 44.1 KHz
Resolution                      : 16 bits
Stream size                      : 68.3 MiB (13%)
Language                        : Hindi

Audio #2
ID                              : 3
Format                          : MPEG Audio
Format version                  : Version 2
Format profile                  : Layer 3
Codec ID                        : A_MPEG/L3
Codec ID/Hint                    : MP3
Duration                        : 1h 39mn
Bit rate mode                    : Constant
Bit rate                        : 56.0 Kbps
Channel(s)                      : 2 channels
Sampling rate                    : 24.0 KHz
Resolution                      : 16 bits
Stream size                      : 39.8 MiB (8%)

Recommended Player:VLC Player

Credits:imkhan